{"title":"Independence Day Resurgence 2016 - HD-TS - x264 - AAC- 700 MB -D","uid":15137732,"size":837358526,"categoryP":"video","categoryS":"movies","magnet":"?xt=urn:btih:89fa7aab4abb698fb3f954df3ee9da6530724946&amp;dn=Independence+Day+Resurgence+2016+-+HD-TS+-+x264+-+AAC-+700+MB+-D&amp;tr=udp%3A%2F%2Ftracker.leechers-paradise.org%3A6969&amp;tr=udp%3A%2F%2Fzer0day.ch%3A1337&amp;tr=udp%3A%2F%2Fopen.demonii.com%3A1337&amp;tr=udp%3A%2F%2Ftracker.coppersurfer.tk%3A6969&amp;tr=udp%3A%2F%2Fexodus.desync.com%3A6969","seeders":22,"leechers":5,"uploader":"makintos13","files":1,"time":1467183276,"description":"screens:\r\n \nhttps://imgmak.com/TB9\r\n \nhttps://imgmak.com/TBM\r\n \nhttps://imgmak.com/TBO\r\n \nhttps://imgmak.com/TBP\r\n \nhttps://imgmak.com/TBY\r\n \nhttps://imgmak.com/TB0\r\n\r\nFormat : Matroska\r\nFormat version : Version 4 / Version 2\r\nFile size : 799 MiB\r\nDuration : 1h 50mn\r\n\r\nVideo\r\nID : 3\r\nFormat : AVC\r\nFormat/Info : Advanced Video Codec\r\nFormat profile :   \r\nFormat settings, CABAC : Yes\r\nFormat settings, ReFrames : 4 frames\r\nCodec ID : V_MPEG4/ISO/AVC\r\nDuration : 1h 50mn\r\nBit rate : 878 Kbps\r\nWidth : 704 pixels\r\nHeight : 376 pixels\r\nDisplay aspect ratio : 1.85:1\r\nFrame rate mode : Constant\r\nFrame rate : 30.000 fps\r\nColor space : YUV\r\nChroma subsampling : 4:2:0\r\nBit depth : 8 bits\r\nScan type : Progressive\r\nBits/(Pixel*Frame) : 0.111\r\nStream size : 695 MiB (87%)\r\nDefault : Yes\r\nForced : No\r\n\r\nAudio #1\r\nID : 1\r\nFormat : AAC\r\nFormat/Info : Advanced Audio Codec\r\nFormat profile : LC\r\nCodec ID : A_AAC\r\nDuration : 1h 50mn\r\nBit rate : 64.2 Kbps\r\nChannel(s) : 2 channels\r\nChannel positions : Front: L R\r\nSampling rate : 48.0 KHz\r\nFrame rate : 46.875 fps (1024 spf)\r\nCompression mode : Lossy\r\nDelay relative to video : 46ms\r\nStream size : 50.8 MiB (6%)\r\nTitle : Stereo\r\nLanguage : English\r\nDefault : Yes\r\nForced : No\r\n\r\nAudio #2\r\nID : 2\r\nFormat : AAC\r\nFormat/Info : Advanced Audio Codec\r\nFormat profile : LC\r\nCodec ID : A_AAC\r\nDuration : 1h 49mn\r\nBit rate : 64.1 Kbps\r\nChannel(s) : 2 channels\r\nChannel positions : Front: L R\r\nSampling rate : 48.0 KHz\r\nFrame rate : 46.875 fps (1024 spf)\r\nCompression mode : Lossy\r\nDelay relative to video : 46ms\r\nStream size : 50.3 MiB (6%)\r\nTitle : Stereo\r\nLanguage : Hindi\r\nDefault : No\r\nForced : No\r\nSource : DH (thanks)","torrent":{"xt":"urn:btih:89fa7aab4abb698fb3f954df3ee9da6530724946","amp;dn":"Independence+Day+Resurgence+2016+-+HD-TS+-+x264+-+AAC-+700+MB+-D","amp;tr":["udp%3A%2F%2Ftracker.leechers-paradise.org%3A6969","udp%3A%2F%2Fzer0day.ch%3A1337","udp%3A%2F%2Fopen.demonii.com%3A1337","udp%3A%2F%2Ftracker.coppersurfer.tk%3A6969","udp%3A%2F%2Fexodus.desync.com%3A6969"],"infoHash":"89fa7aab4abb698fb3f954df3ee9da6530724946","infoHashBuffer":{"type":"Buffer","data":[137,250,122,171,74,187,105,143,179,249,84,223,62,233,218,101,48,114,73,70]},"announce":[],"urlList":[]}}